<mxfile host="app.diagrams.net" modified="2024-03-01T19:30:02.401Z" agent="Mozilla/5.0 (Windows NT 10.0; Win64; x64; rv:122.0) Gecko/20100101 Firefox/122.0" etag="AvnJ8On1JbSt6yjptPd-" version="24.0.0" type="device">
  <diagram name="Seite-1" id="LPgEbYQRkxaLvWDWPUvg">
    <mxGraphModel dx="1877" dy="530" grid="1" gridSize="10" guides="1" tooltips="1" connect="1" arrows="1" fold="1" page="1" pageScale="1" pageWidth="827" pageHeight="1169" math="0" shadow="0">
      <root>
        <mxCell id="0" />
        <mxCell id="1" parent="0" />
        <mxCell id="US2TrUgr7TzGokMC3wSj-1" value="" style="rounded=1;whiteSpace=wrap;html=1;" vertex="1" parent="1">
          <mxGeometry x="170" y="80" width="450" height="350" as="geometry" />
        </mxCell>
        <mxCell id="US2TrUgr7TzGokMC3wSj-2" value="BackEnd" style="text;html=1;align=center;verticalAlign=middle;whiteSpace=wrap;rounded=0;" vertex="1" parent="1">
          <mxGeometry x="365" y="90" width="60" height="30" as="geometry" />
        </mxCell>
        <mxCell id="US2TrUgr7TzGokMC3wSj-3" value="" style="rounded=0;whiteSpace=wrap;html=1;" vertex="1" parent="1">
          <mxGeometry x="-40" y="120" width="120" height="60" as="geometry" />
        </mxCell>
        <mxCell id="US2TrUgr7TzGokMC3wSj-7" style="edgeStyle=orthogonalEdgeStyle;rounded=0;orthogonalLoop=1;jettySize=auto;html=1;exitX=1;exitY=0.5;exitDx=0;exitDy=0;" edge="1" parent="1" source="US2TrUgr7TzGokMC3wSj-4" target="US2TrUgr7TzGokMC3wSj-6">
          <mxGeometry relative="1" as="geometry" />
        </mxCell>
        <mxCell id="US2TrUgr7TzGokMC3wSj-4" value="&lt;div&gt;Yahoo Finance&lt;/div&gt;&lt;div&gt;Other source&lt;br&gt;&lt;/div&gt;" style="text;html=1;align=center;verticalAlign=middle;whiteSpace=wrap;rounded=0;" vertex="1" parent="1">
          <mxGeometry x="-40" y="130" width="120" height="30" as="geometry" />
        </mxCell>
        <mxCell id="US2TrUgr7TzGokMC3wSj-15" style="edgeStyle=orthogonalEdgeStyle;rounded=0;orthogonalLoop=1;jettySize=auto;html=1;exitX=0.5;exitY=1;exitDx=0;exitDy=0;entryX=0.5;entryY=0;entryDx=0;entryDy=0;" edge="1" parent="1" source="US2TrUgr7TzGokMC3wSj-6" target="US2TrUgr7TzGokMC3wSj-14">
          <mxGeometry relative="1" as="geometry" />
        </mxCell>
        <mxCell id="US2TrUgr7TzGokMC3wSj-6" value="source request manager" style="rounded=0;whiteSpace=wrap;html=1;" vertex="1" parent="1">
          <mxGeometry x="230" y="140" width="120" height="60" as="geometry" />
        </mxCell>
        <mxCell id="US2TrUgr7TzGokMC3wSj-8" value="get data" style="text;html=1;align=center;verticalAlign=middle;whiteSpace=wrap;rounded=0;" vertex="1" parent="1">
          <mxGeometry x="110" y="120" width="60" height="30" as="geometry" />
        </mxCell>
        <mxCell id="US2TrUgr7TzGokMC3wSj-11" style="edgeStyle=orthogonalEdgeStyle;rounded=0;orthogonalLoop=1;jettySize=auto;html=1;exitX=0;exitY=0.25;exitDx=0;exitDy=0;entryX=1;entryY=0.5;entryDx=0;entryDy=0;" edge="1" parent="1" source="US2TrUgr7TzGokMC3wSj-9" target="US2TrUgr7TzGokMC3wSj-6">
          <mxGeometry relative="1" as="geometry" />
        </mxCell>
        <mxCell id="US2TrUgr7TzGokMC3wSj-12" style="edgeStyle=orthogonalEdgeStyle;rounded=0;orthogonalLoop=1;jettySize=auto;html=1;exitX=0;exitY=0.75;exitDx=0;exitDy=0;entryX=1;entryY=0.5;entryDx=0;entryDy=0;" edge="1" parent="1" source="US2TrUgr7TzGokMC3wSj-9" target="US2TrUgr7TzGokMC3wSj-10">
          <mxGeometry relative="1" as="geometry" />
        </mxCell>
        <mxCell id="US2TrUgr7TzGokMC3wSj-9" value="config" style="rounded=0;whiteSpace=wrap;html=1;" vertex="1" parent="1">
          <mxGeometry x="400" y="140" width="100" height="140" as="geometry" />
        </mxCell>
        <mxCell id="US2TrUgr7TzGokMC3wSj-16" style="edgeStyle=orthogonalEdgeStyle;rounded=0;orthogonalLoop=1;jettySize=auto;html=1;exitX=0.5;exitY=0;exitDx=0;exitDy=0;entryX=0.5;entryY=1;entryDx=0;entryDy=0;" edge="1" parent="1" source="US2TrUgr7TzGokMC3wSj-10" target="US2TrUgr7TzGokMC3wSj-14">
          <mxGeometry relative="1" as="geometry" />
        </mxCell>
        <mxCell id="US2TrUgr7TzGokMC3wSj-10" value="database manager" style="rounded=0;whiteSpace=wrap;html=1;" vertex="1" parent="1">
          <mxGeometry x="230" y="320" width="120" height="60" as="geometry" />
        </mxCell>
        <mxCell id="US2TrUgr7TzGokMC3wSj-14" value="files manager" style="rounded=0;whiteSpace=wrap;html=1;" vertex="1" parent="1">
          <mxGeometry x="230" y="230" width="120" height="60" as="geometry" />
        </mxCell>
        <mxCell id="US2TrUgr7TzGokMC3wSj-17" value="database" style="shape=cylinder3;whiteSpace=wrap;html=1;boundedLbl=1;backgroundOutline=1;size=15;" vertex="1" parent="1">
          <mxGeometry x="40" y="320" width="60" height="80" as="geometry" />
        </mxCell>
        <mxCell id="US2TrUgr7TzGokMC3wSj-18" style="edgeStyle=orthogonalEdgeStyle;rounded=0;orthogonalLoop=1;jettySize=auto;html=1;exitX=0;exitY=0.5;exitDx=0;exitDy=0;entryX=1;entryY=0.5;entryDx=0;entryDy=0;entryPerimeter=0;" edge="1" parent="1" source="US2TrUgr7TzGokMC3wSj-10" target="US2TrUgr7TzGokMC3wSj-17">
          <mxGeometry relative="1" as="geometry" />
        </mxCell>
        <mxCell id="US2TrUgr7TzGokMC3wSj-23" style="edgeStyle=orthogonalEdgeStyle;rounded=0;orthogonalLoop=1;jettySize=auto;html=1;entryX=1;entryY=0.75;entryDx=0;entryDy=0;" edge="1" parent="1" source="US2TrUgr7TzGokMC3wSj-22" target="US2TrUgr7TzGokMC3wSj-10">
          <mxGeometry relative="1" as="geometry" />
        </mxCell>
        <mxCell id="US2TrUgr7TzGokMC3wSj-24" style="edgeStyle=orthogonalEdgeStyle;rounded=0;orthogonalLoop=1;jettySize=auto;html=1;exitX=1;exitY=0.5;exitDx=0;exitDy=0;" edge="1" parent="1" source="US2TrUgr7TzGokMC3wSj-22">
          <mxGeometry relative="1" as="geometry">
            <mxPoint x="660" y="350" as="targetPoint" />
          </mxGeometry>
        </mxCell>
        <mxCell id="US2TrUgr7TzGokMC3wSj-22" value="API request manager" style="rounded=0;whiteSpace=wrap;html=1;" vertex="1" parent="1">
          <mxGeometry x="430" y="320" width="120" height="60" as="geometry" />
        </mxCell>
        <mxCell id="US2TrUgr7TzGokMC3wSj-25" value="&lt;div&gt;API&lt;/div&gt;&lt;div&gt;entrypoint&lt;br&gt;&lt;/div&gt;" style="text;html=1;align=center;verticalAlign=middle;whiteSpace=wrap;rounded=0;" vertex="1" parent="1">
          <mxGeometry x="620" y="370" width="60" height="30" as="geometry" />
        </mxCell>
      </root>
    </mxGraphModel>
  </diagram>
</mxfile>
